<svg width="24" height="18" viewBox="0 0 24 18" fill="none" xmlns="http://www.w3.org/2000/svg">
<path fill-rule="evenodd" clip-rule="evenodd" d="M10.5 1.75C10.0942 1.75 9.75 2.09421 9.75 2.5V4.71385C9.75022 4.72422 9.75021 4.73458 9.75 4.74492V5.5C9.75 5.90579 10.0942 6.25 10.5 6.25H13.5C13.9058 6.25 14.25 5.90579 14.25 5.5V4.74492C14.2498 4.73458 14.2498 4.72422 14.25 4.71385V2.5C14.25 2.09421 13.9058 1.75 13.5 1.75H10.5ZM15.75 3.25V2.5C15.75 1.26579 14.7342 0.25 13.5 0.25H10.5C9.26579 0.25 8.25 1.26579 8.25 2.5V3.25H5.64648C5.32002 2.09575 4.25878 1.25 3 1.25C1.48122 1.25 0.25 2.48122 0.25 4C0.25 5.51878 1.48122 6.75 3 6.75C4.25878 6.75 5.32002 5.90425 5.64648 4.75H7.54947C5.60127 6.20134 4.32835 8.57371 4.25349 11.25H4C2.75579 11.25 1.75 12.2558 1.75 13.5V15.5C1.75 16.7442 2.75579 17.75 4 17.75H6C6.33465 17.75 6.63913 17.6738 6.91694 17.5444C7.70351 17.2047 8.25 16.4089 8.25 15.5V13.5C8.25 12.2558 7.24421 11.25 6 11.25H5.75419C5.82638 9.0998 6.82604 7.22299 8.31894 6.0501C8.56704 7.02216 9.45526 7.75 10.5 7.75H13.5C14.5447 7.75 15.433 7.02216 15.6811 6.0501C17.174 7.22299 18.1736 9.0998 18.2458 11.25H18C16.7558 11.25 15.75 12.2558 15.75 13.5V15.5C15.75 16.4089 16.2965 17.2047 17.0831 17.5444C17.3609 17.6738 17.6654 17.75 18 17.75H20C21.2442 17.75 22.25 16.7442 22.25 15.5V13.5C22.25 12.2558 21.2442 11.25 20 11.25H19.7465C19.6717 8.57371 18.3987 6.20134 16.4505 4.75H18.3535C18.68 5.90425 19.7412 6.75 21 6.75C22.5188 6.75 23.75 5.51878 23.75 4C23.75 2.48122 22.5188 1.25 21 1.25C19.7412 1.25 18.68 2.09575 18.3535 3.25H15.75ZM18.9605 12.75C18.9675 12.7501 18.9744 12.7501 18.9813 12.75H20C20.4158 12.75 20.75 13.0842 20.75 13.5V15.5C20.75 15.9158 20.4158 16.25 20 16.25H18C17.9003 16.25 17.8095 16.2288 17.7111 16.1822C17.7015 16.1777 17.6919 16.1734 17.6822 16.1693C17.4367 16.0654 17.25 15.8054 17.25 15.5V13.5C17.25 13.0842 17.5842 12.75 18 12.75H18.9605ZM5.01867 12.75C5.02558 12.7501 5.03251 12.7501 5.03946 12.75H6C6.41579 12.75 6.75 13.0842 6.75 13.5V15.5C6.75 15.8054 6.56332 16.0654 6.31777 16.1693C6.30807 16.1734 6.29846 16.1777 6.28894 16.1822C6.19055 16.2288 6.09967 16.25 6 16.25H4C3.58421 16.25 3.25 15.9158 3.25 15.5V13.5C3.25 13.0842 3.58421 12.75 4 12.75H5.01867ZM3 2.75C2.30964 2.75 1.75 3.30964 1.75 4C1.75 4.69036 2.30964 5.25 3 5.25C3.69036 5.25 4.25 4.69036 4.25 4C4.25 3.30964 3.69036 2.75 3 2.75ZM21 2.75C20.3096 2.75 19.75 3.30964 19.75 4C19.75 4.69036 20.3096 5.25 21 5.25C21.6904 5.25 22.25 4.69036 22.25 4C22.25 3.30964 21.6904 2.75 21 2.75Z" fill="black"/>
</svg>
