<svg width="22" height="22" viewBox="0 0 22 22" fill="none" xmlns="http://www.w3.org/2000/svg">
<path fill-rule="evenodd" clip-rule="evenodd" d="M13.4036 0.914343C13.4044 0.914884 13.4052 0.915426 13.406 0.915968L19.3914 4.84292C20.7028 5.70353 21.2891 7.15 21.15 8.53431V14C21.15 14.4142 20.8142 14.75 20.4 14.75C19.9858 14.75 19.65 14.4142 19.65 14V11.2427C19.5672 11.3068 19.4811 11.3683 19.3915 11.427L18.13 12.2547V16.77C18.13 17.5908 17.8174 18.3984 17.3487 19.0494C16.8802 19.7004 16.2141 20.2525 15.4372 20.5115L12.2395 21.5741C11.8625 21.6953 11.412 21.745 10.9963 21.745C10.5812 21.745 10.1313 21.6954 9.75673 21.5728L9.75351 21.5717L6.56351 20.5117C5.78657 20.2528 5.11987 19.7004 4.65131 19.0494C4.18267 18.3984 3.87001 17.5908 3.87001 16.77L3.87002 16.7684L3.87965 12.2503L2.62003 11.428C0.236691 9.87207 0.23668 6.38795 2.62002 4.83199L8.63801 0.903302C8.63836 0.903078 8.6387 0.902854 8.63904 0.90263C9.32789 0.450136 10.1949 0.247312 11.0213 0.248756C11.8473 0.2502 12.7145 0.455809 13.4036 0.914343ZM5.37757 13.2282L5.37001 16.77C5.37001 16.7698 5.37001 16.7703 5.37001 16.77C5.37021 17.219 5.54754 17.7269 5.86872 18.1731C6.18998 18.6194 6.61368 18.9471 7.03652 19.0883M7.03652 19.0883L10.2233 20.1472C10.2238 20.1474 10.2243 20.1475 10.2247 20.1477C10.4002 20.2048 10.6797 20.245 10.9963 20.245C11.3113 20.245 11.5944 20.2052 11.7775 20.147L14.9628 19.0885C15.3857 18.9474 15.81 18.6194 16.1313 18.1731C16.4527 17.7267 16.63 17.2192 16.63 16.77V13.2388L13.402 15.3567C13.4019 15.3568 13.4021 15.3566 13.402 15.3567C12.7131 15.8095 11.8458 16.0125 11.02 16.0125C10.1945 16.0125 9.32783 15.8098 8.63902 15.3574C8.63868 15.3571 8.63835 15.3569 8.63801 15.3567L5.37757 13.2282M19.6579 7.89074C19.6527 7.92641 19.65 7.96289 19.65 8.00001V8.44879C19.5644 9.11731 19.2039 9.75596 18.5686 10.1729C18.5686 10.1729 18.5686 10.1729 18.5686 10.1729L12.5786 14.1029C12.1876 14.36 11.6241 14.5125 11.02 14.5125C10.4159 14.5125 9.85304 14.3604 9.46201 14.1033L3.44001 10.172C3.44001 10.172 3.44002 10.172 3.44001 10.172C1.96336 9.20795 1.96335 7.05207 3.44 6.08803C3.44 6.08803 3.44 6.08802 3.44 6.08803L9.46 2.15803L9.46201 2.15671C9.85299 1.89967 10.4156 1.7477 11.0187 1.74875C11.6218 1.74981 12.1835 1.90372 12.574 2.16404L18.5685 6.09704C18.5685 6.09703 18.5685 6.09706 18.5685 6.09704C19.2259 6.52844 19.589 7.19718 19.6579 7.89074Z" fill="black"/>
</svg>
