<svg width="24" height="24" viewBox="0 0 24 24" fill="none" xmlns="http://www.w3.org/2000/svg">
<path fill-rule="evenodd" clip-rule="evenodd" d="M6.56077 7.27083C4.89884 8.59419 4.07798 10.3421 3.71541 11.3512C3.56361 11.7736 3.56361 12.2264 3.71541 12.6488C4.35437 14.427 6.41657 18.5 11.997 18.5C13.9204 18.5 15.4259 18.0162 16.5991 17.3092L14.0931 14.8032C13.5088 15.2408 12.7832 15.5 11.997 15.5C10.0641 15.5 8.49705 13.933 8.49705 12C8.49705 11.2138 8.75625 10.4882 9.19385 9.90391L6.56077 7.27083ZM5.84866 6.55872C4.05064 8.03382 3.15915 9.94202 2.77432 11.013C2.54398 11.654 2.54398 12.346 2.77432 12.987C3.4629 14.9033 5.77353 19.5 11.997 19.5C14.2506 19.5 15.9911 18.8973 17.3273 18.0374L18.6435 19.3536C18.8388 19.5488 19.1553 19.5488 19.3506 19.3536C19.5459 19.1583 19.5459 18.8417 19.3506 18.6464L18.1454 17.4413C19.9435 15.9662 20.8349 14.058 21.2198 12.987C21.4501 12.346 21.4501 11.654 21.2198 11.013C20.5312 9.09672 18.2206 4.5 11.997 4.5C9.7435 4.5 8.003 5.10271 6.66679 5.96263L5.3506 4.64645C5.15534 4.45118 4.83876 4.45118 4.64349 4.64645C4.44823 4.84171 4.44823 5.15829 4.64349 5.35355L5.84866 6.55872ZM7.39495 6.6908L9.90096 9.19681C10.4853 8.7592 11.2109 8.5 11.997 8.5C13.93 8.5 15.497 10.067 15.497 12C15.497 12.7862 15.2378 13.5118 14.8002 14.0961L17.4333 16.7292C19.0953 15.4058 19.9161 13.6579 20.2787 12.6488C20.4305 12.2264 20.4305 11.7736 20.2787 11.3512C19.6397 9.57297 17.5775 5.5 11.997 5.5C10.0737 5.5 8.56822 5.98384 7.39495 6.6908ZM14.0828 13.3787C14.3446 12.9835 14.497 12.5095 14.497 12C14.497 10.6193 13.3778 9.5 11.997 9.5C11.4875 9.5 11.0136 9.65244 10.6184 9.9142L14.0828 13.3787ZM9.91125 10.6213C9.64949 11.0165 9.49705 11.4905 9.49705 12C9.49705 13.3807 10.6163 14.5 11.997 14.5C12.5066 14.5 12.9805 14.3476 13.3757 14.0858L9.91125 10.6213Z" fill="#767676" stroke="#767676" stroke-width="0.4" stroke-linecap="round" stroke-linejoin="round"/>
</svg>
