<svg width="87" height="87" viewBox="0 0 87 87" fill="none" xmlns="http://www.w3.org/2000/svg">
<path d="M72.1859 34.9218C71.5772 15.8524 56.1251 0.46369 36.9915 0C36.4988 0 36.0931 0.376748 36.0931 0.86942L36.0641 13.6789C36.0641 14.3165 35.5711 14.8091 34.9334 14.8381C15.8577 15.4177 0.463846 30.8934 0 50.0206C0 50.5134 0.376875 50.9191 0.86971 50.9191L13.6544 50.9481C14.2922 50.9481 14.7851 51.4408 14.8141 52.0782C15.4229 71.1474 30.9036 86.5363 50.0085 87C50.5012 87 50.9069 86.6233 50.9069 86.1306L50.9359 73.321C50.9359 72.6836 51.4289 72.1909 52.0666 72.1618C71.1422 71.5534 86.5363 56.0776 87 36.9793C87 36.4866 86.623 36.0809 86.1303 36.0809L73.3456 36.0519C72.7076 36.0519 72.2149 35.5592 72.1859 34.9218ZM49.6605 72.0749C38.8179 71.4374 30.1208 62.6272 29.7151 51.7305C29.6861 51.2668 29.3091 50.8901 28.8454 50.8901L16.0896 50.8611C15.4229 50.8611 14.901 50.3104 14.93 49.6439C15.5678 38.8052 24.3809 30.111 35.2811 29.7053C35.7451 29.6763 36.1218 29.2996 36.1218 28.8358L36.1508 16.0553C36.1508 15.3887 36.7018 14.8671 37.3685 14.8961C48.211 15.5336 56.9081 24.3438 57.3139 35.2405C57.3429 35.7042 57.7199 36.0809 58.1836 36.0809L70.9392 36.1099C71.6062 36.1099 72.1279 36.6606 72.0989 37.3271C71.4612 48.4558 62.2131 57.2947 50.9359 57.2947L50.9069 70.9157C50.8782 71.5821 50.3272 72.1039 49.6605 72.0749Z" fill="#191919"/>
</svg>
