<svg width="22" height="22" viewBox="0 0 22 22" fill="none" xmlns="http://www.w3.org/2000/svg">
<path fill-rule="evenodd" clip-rule="evenodd" d="M10.0751 3.25738C9.28465 3.89874 8.79259 4.9363 8.64723 6.62434C8.6117 7.03702 8.24834 7.34276 7.83565 7.30722C7.42297 7.27169 7.11723 6.90833 7.15276 6.49564C7.31741 4.58368 7.90535 3.08624 9.12994 2.0926C10.3338 1.11574 12.0163 0.73999 14.11 0.73999H14.24C16.5492 0.73999 18.3609 1.19778 19.5766 2.41341C20.7922 3.62904 21.25 5.44081 21.25 7.74999V14.27C21.25 16.5792 20.7922 18.3909 19.5766 19.6066C18.3609 20.8222 16.5492 21.28 14.24 21.28H14.11C12.0315 21.28 10.3592 20.9093 9.15773 19.9481C7.93462 18.9697 7.33891 17.4941 7.16324 15.6096C7.12479 15.1972 7.42796 14.8317 7.84039 14.7932C8.25281 14.7548 8.61832 15.058 8.65676 15.4704C8.81109 17.1259 9.30538 18.1453 10.0948 18.7768C10.9058 19.4257 12.1685 19.78 14.11 19.78H14.24C16.4008 19.78 17.7191 19.3428 18.5159 18.5459C19.3128 17.749 19.75 16.4308 19.75 14.27V7.74999C19.75 5.58917 19.3128 4.27094 18.5159 3.47407C17.7191 2.6772 16.4008 2.23999 14.24 2.23999H14.11C12.1537 2.23999 10.8862 2.59924 10.0751 3.25738ZM5.38033 7.11966C5.67322 7.41255 5.67322 7.88743 5.38033 8.18032L3.31066 10.25H14C14.4142 10.25 14.75 10.5858 14.75 11C14.75 11.4142 14.4142 11.75 14 11.75H3.31066L5.38033 13.8197C5.67322 14.1126 5.67322 14.5874 5.38033 14.8803C5.08744 15.1732 4.61256 15.1732 4.31967 14.8803L0.96967 11.5303C0.676777 11.2374 0.676777 10.7626 0.96967 10.4697L4.31967 7.11966C4.61256 6.82677 5.08744 6.82677 5.38033 7.11966Z" fill="black"/>
</svg>
