<svg width="22" height="22" viewBox="0 0 22 22" fill="none" xmlns="http://www.w3.org/2000/svg">
<path fill-rule="evenodd" clip-rule="evenodd" d="M10.4837 0.268961C11.5191 0.244681 12.5961 0.507748 13.4501 1.10558L19.6288 5.43471C19.6286 5.43455 19.6291 5.43486 19.6288 5.43471C20.2484 5.86675 20.7707 6.53286 21.1361 7.23294C21.5017 7.93333 21.75 8.7428 21.75 9.5V16.78C21.75 19.5031 19.5254 21.74 16.79 21.74H5.21C2.47347 21.74 0.25 19.5019 0.25 16.77V9.36C0.25 8.64953 0.474406 7.88052 0.804179 7.20839C1.134 6.53618 1.60552 5.88685 2.16901 5.4484L7.55901 1.2484C8.38375 0.606946 9.44825 0.293239 10.4837 0.268961ZM8.48046 2.43202C8.48037 2.43209 8.48054 2.43195 8.48046 2.43202L3.09099 6.63161C2.75471 6.89315 2.4109 7.33904 2.15082 7.86912C1.89059 8.39949 1.75 8.94048 1.75 9.36V16.77C1.75 18.6781 3.30653 20.24 5.21 20.24H16.79C18.6946 20.24 20.25 18.677 20.25 16.78V9.5C20.25 9.04721 20.0933 8.47668 19.8064 7.92707C19.5195 7.3774 19.1413 6.92327 18.7712 6.6653L18.7696 6.66424L12.5899 2.33443C12.5898 2.33437 12.59 2.33449 12.5899 2.33443C12.044 1.95238 11.2958 1.75033 10.5188 1.76855C9.74188 1.78677 9.00571 2.0236 8.48046 2.43202ZM11 13.24C11.4142 13.24 11.75 13.5758 11.75 13.99V16.99C11.75 17.4042 11.4142 17.74 11 17.74C10.5858 17.74 10.25 17.4042 10.25 16.99V13.99C10.25 13.5758 10.5858 13.24 11 13.24Z" fill="white"/>
</svg>
