<svg width="22" height="22" viewBox="0 0 22 22" fill="none" xmlns="http://www.w3.org/2000/svg">
<path fill-rule="evenodd" clip-rule="evenodd" d="M8.60347 2.77018C8.3358 2.32423 7.77209 2.18551 7.35347 2.43457L7.34256 2.44105L5.61251 3.43096C5.06514 3.74375 4.8763 4.45289 5.1894 4.9948L4.54 5.37001L5.18888 4.99391C5.72395 5.91704 5.86779 6.92882 5.38982 7.75823C4.91192 8.58753 3.96479 8.97001 2.9 8.97001C2.26678 8.97001 1.75 9.49166 1.75 10.12V11.88C1.75 12.5084 2.26678 13.03 2.9 13.03C3.96479 13.03 4.91192 13.4125 5.38982 14.2418C5.86773 15.0711 5.72398 16.0827 5.18909 17.0058C4.87642 17.5476 5.06491 18.2561 5.6121 18.5688L7.35352 19.5654C7.77214 19.8144 8.33578 19.6758 8.60345 19.2299L8.71093 19.0442C9.2458 18.1214 10.052 17.4925 11.0087 17.4925C11.9662 17.4925 12.77 18.1219 13.3 19.0458C13.3002 19.0462 13.3004 19.0466 13.3007 19.047L13.4065 19.2298C13.6742 19.6758 14.2379 19.8145 14.6565 19.5655L14.6674 19.559L16.3975 18.5691C16.9434 18.2571 17.1351 17.5578 16.8198 17.0038C16.2858 16.0813 16.1426 15.0705 16.6202 14.2418C17.0981 13.4125 18.0452 13.03 19.11 13.03C19.7432 13.03 20.26 12.5084 20.26 11.88V10.12C20.26 9.48679 19.7384 8.97001 19.11 8.97001C18.0452 8.97001 17.0981 8.58753 16.6202 7.75824C16.1423 6.92899 16.286 5.91744 16.8208 4.99445C17.1336 4.45258 16.9451 3.74391 16.3979 3.43119L14.6565 2.43466C14.2379 2.1856 13.6742 2.32423 13.4065 2.77019L13.2991 2.95579C12.7642 3.8786 11.958 4.50751 11.0012 4.50751C10.0439 4.50751 9.24021 3.87825 8.71021 2.95455C8.70992 2.95403 8.70962 2.95352 8.70933 2.95301L8.60347 2.77018ZM6.59248 1.14193C7.75191 0.456562 9.22257 0.877037 9.89456 2.00654L9.89912 2.01421L10.0091 2.20423L10.0107 2.20701C10.3807 2.85247 10.7666 3.00751 11.0012 3.00751C11.237 3.00751 11.6259 2.85115 12.0009 2.20423C12.0009 2.20434 12.001 2.20412 12.0009 2.20423L12.1154 2.00651C12.7874 0.877005 14.2581 0.456558 15.4175 1.14193L17.1421 2.12883C18.4147 2.85604 18.8463 4.48713 18.1194 5.74522L18.1189 5.74611C17.7439 6.39298 17.8028 6.8062 17.9198 7.00929C18.0369 7.21249 18.3648 7.47001 19.11 7.47001C20.5616 7.47001 21.76 8.65323 21.76 10.12V11.88C21.76 13.3317 20.5768 14.53 19.11 14.53C18.3648 14.53 18.0369 14.7875 17.9198 14.9907C17.8028 15.1938 17.7439 15.607 18.1189 16.2539L18.1212 16.2579C18.8444 17.5235 18.4157 19.1431 17.1425 19.871C17.1424 19.871 17.1426 19.8709 17.1425 19.871L15.4174 20.8581C14.258 21.5434 12.7874 21.123 12.1154 19.9935L12.1109 19.9858L12.0009 19.7958L11.9993 19.793C11.6293 19.1476 11.2434 18.9925 11.0087 18.9925C10.773 18.9925 10.3841 19.1489 10.0091 19.7958C10.009 19.7959 10.0091 19.7957 10.0091 19.7958L9.8946 19.9935C9.22263 21.123 7.75199 21.5434 6.59257 20.8581L4.8679 19.8712C4.86776 19.8711 4.86803 19.8713 4.8679 19.8712C3.59558 19.1439 3.16378 17.5128 3.8906 16.2548L3.89112 16.2539C4.26606 15.607 4.20721 15.1938 4.09018 14.9907C3.97308 14.7875 3.64521 14.53 2.9 14.53C1.43322 14.53 0.25 13.3317 0.25 11.88V10.12C0.25 8.66837 1.43322 7.47001 2.9 7.47001C3.64521 7.47001 3.97308 7.21249 4.09018 7.00929C4.20721 6.8062 4.26606 6.39298 3.89112 5.74611L3.8906 5.74522C3.16378 4.48726 3.59518 2.85639 4.86749 2.12906L6.59248 1.14193ZM11 8.75001C9.75736 8.75001 8.75 9.75737 8.75 11C8.75 12.2427 9.75736 13.25 11 13.25C12.2426 13.25 13.25 12.2427 13.25 11C13.25 9.75737 12.2426 8.75001 11 8.75001ZM7.25 11C7.25 8.92894 8.92893 7.25001 11 7.25001C13.0711 7.25001 14.75 8.92894 14.75 11C14.75 13.0711 13.0711 14.75 11 14.75C8.92893 14.75 7.25 13.0711 7.25 11Z" fill="black"/>
</svg>
